<mxfile host="app.diagrams.net" modified="2023-12-02T02:55:45.827Z" agent="Mozilla/5.0 (Macintosh; Intel Mac OS X 10_15_7) AppleWebKit/537.36 (KHTML, like Gecko) Chrome/119.0.0.0 Safari/537.36" etag="-iUYsdtqv4s-y0mmRGcF" version="22.1.5" type="github">
  <diagram name="Page-1" id="bMTyGJg7muoYV-IJvbKd">
    <mxGraphModel dx="1224" dy="739" grid="1" gridSize="10" guides="1" tooltips="1" connect="1" arrows="1" fold="1" page="1" pageScale="1" pageWidth="850" pageHeight="1100" math="0" shadow="0">
      <root>
        <mxCell id="0" />
        <mxCell id="1" parent="0" />
        <mxCell id="waU2hx9NtPSAUG4F85_c-1" value="person" style="rounded=1;whiteSpace=wrap;html=1;sketch=1;curveFitting=1;jiggle=2;fillColor=#dae8fc;strokeColor=#6c8ebf;" vertex="1" parent="1">
          <mxGeometry x="30" y="50" width="120" height="60" as="geometry" />
        </mxCell>
        <mxCell id="waU2hx9NtPSAUG4F85_c-3" value="name = Joe Doe" style="text;html=1;strokeColor=none;fillColor=none;align=left;verticalAlign=middle;whiteSpace=wrap;rounded=0;fontColor=#0000FF;" vertex="1" parent="1">
          <mxGeometry x="160" y="45" width="100" height="30" as="geometry" />
        </mxCell>
        <mxCell id="waU2hx9NtPSAUG4F85_c-9" style="rounded=0;orthogonalLoop=1;jettySize=auto;html=1;exitX=1;exitY=0.5;exitDx=0;exitDy=0;entryX=0;entryY=0.5;entryDx=0;entryDy=0;sketch=1;curveFitting=1;jiggle=2;fontColor=#0000FF;fillColor=#dae8fc;strokeColor=#6c8ebf;" edge="1" parent="1" source="waU2hx9NtPSAUG4F85_c-5" target="waU2hx9NtPSAUG4F85_c-6">
          <mxGeometry relative="1" as="geometry" />
        </mxCell>
        <mxCell id="waU2hx9NtPSAUG4F85_c-5" value="city =" style="text;html=1;strokeColor=none;fillColor=none;align=left;verticalAlign=middle;whiteSpace=wrap;rounded=0;fontColor=#0000FF;" vertex="1" parent="1">
          <mxGeometry x="160" y="65" width="40" height="30" as="geometry" />
        </mxCell>
        <mxCell id="waU2hx9NtPSAUG4F85_c-6" value="address" style="rounded=1;whiteSpace=wrap;html=1;sketch=1;curveFitting=1;jiggle=2;fillColor=#dae8fc;strokeColor=#6c8ebf;" vertex="1" parent="1">
          <mxGeometry x="300" y="50" width="120" height="60" as="geometry" />
        </mxCell>
        <mxCell id="waU2hx9NtPSAUG4F85_c-8" value="value = 10 Main St" style="text;html=1;strokeColor=none;fillColor=none;align=left;verticalAlign=middle;whiteSpace=wrap;rounded=0;fontColor=#0000FF;" vertex="1" parent="1">
          <mxGeometry x="430" y="50" width="110" height="30" as="geometry" />
        </mxCell>
        <mxCell id="waU2hx9NtPSAUG4F85_c-10" value="&lt;b&gt;Initial State&lt;/b&gt;" style="text;html=1;strokeColor=none;fillColor=none;align=left;verticalAlign=middle;whiteSpace=wrap;rounded=0;" vertex="1" parent="1">
          <mxGeometry x="20" y="10" width="120" height="30" as="geometry" />
        </mxCell>
        <mxCell id="waU2hx9NtPSAUG4F85_c-11" value="&lt;b&gt;After Shallow Copy&lt;/b&gt;" style="text;html=1;strokeColor=none;fillColor=none;align=left;verticalAlign=middle;whiteSpace=wrap;rounded=0;" vertex="1" parent="1">
          <mxGeometry x="20" y="176" width="180" height="30" as="geometry" />
        </mxCell>
        <mxCell id="waU2hx9NtPSAUG4F85_c-12" value="original" style="text;html=1;strokeColor=none;fillColor=none;align=center;verticalAlign=middle;whiteSpace=wrap;rounded=0;fontColor=#0000FF;" vertex="1" parent="1">
          <mxGeometry x="60" y="110" width="60" height="30" as="geometry" />
        </mxCell>
        <mxCell id="waU2hx9NtPSAUG4F85_c-13" value="original" style="text;html=1;strokeColor=none;fillColor=none;align=center;verticalAlign=middle;whiteSpace=wrap;rounded=0;fontColor=#0000FF;" vertex="1" parent="1">
          <mxGeometry x="330" y="110" width="60" height="30" as="geometry" />
        </mxCell>
        <mxCell id="waU2hx9NtPSAUG4F85_c-14" value="person" style="rounded=1;whiteSpace=wrap;html=1;sketch=1;curveFitting=1;jiggle=2;fillColor=#dae8fc;strokeColor=#6c8ebf;" vertex="1" parent="1">
          <mxGeometry x="40" y="221" width="120" height="60" as="geometry" />
        </mxCell>
        <mxCell id="waU2hx9NtPSAUG4F85_c-15" value="name = Joe Doe" style="text;html=1;strokeColor=none;fillColor=none;align=left;verticalAlign=middle;whiteSpace=wrap;rounded=0;fontColor=#0000FF;" vertex="1" parent="1">
          <mxGeometry x="170" y="216" width="100" height="30" as="geometry" />
        </mxCell>
        <mxCell id="waU2hx9NtPSAUG4F85_c-16" style="rounded=0;orthogonalLoop=1;jettySize=auto;html=1;exitX=1;exitY=0.5;exitDx=0;exitDy=0;entryX=0;entryY=0.5;entryDx=0;entryDy=0;sketch=1;curveFitting=1;jiggle=2;fillColor=#dae8fc;strokeColor=#6c8ebf;" edge="1" parent="1" source="waU2hx9NtPSAUG4F85_c-17" target="waU2hx9NtPSAUG4F85_c-18">
          <mxGeometry relative="1" as="geometry" />
        </mxCell>
        <mxCell id="waU2hx9NtPSAUG4F85_c-17" value="city =" style="text;html=1;strokeColor=none;fillColor=none;align=left;verticalAlign=middle;whiteSpace=wrap;rounded=0;fontColor=#0000FF;" vertex="1" parent="1">
          <mxGeometry x="170" y="236" width="40" height="30" as="geometry" />
        </mxCell>
        <mxCell id="waU2hx9NtPSAUG4F85_c-18" value="address" style="rounded=1;whiteSpace=wrap;html=1;sketch=1;curveFitting=1;jiggle=2;fillColor=#dae8fc;strokeColor=#6c8ebf;" vertex="1" parent="1">
          <mxGeometry x="310" y="221" width="120" height="60" as="geometry" />
        </mxCell>
        <mxCell id="waU2hx9NtPSAUG4F85_c-19" value="value = 10 Main St" style="text;html=1;strokeColor=none;fillColor=none;align=left;verticalAlign=middle;whiteSpace=wrap;rounded=0;fontColor=#0000FF;" vertex="1" parent="1">
          <mxGeometry x="440" y="221" width="110" height="30" as="geometry" />
        </mxCell>
        <mxCell id="waU2hx9NtPSAUG4F85_c-20" value="original" style="text;html=1;strokeColor=none;fillColor=none;align=center;verticalAlign=middle;whiteSpace=wrap;rounded=0;fontColor=#0000FF;" vertex="1" parent="1">
          <mxGeometry x="70" y="281" width="60" height="30" as="geometry" />
        </mxCell>
        <mxCell id="waU2hx9NtPSAUG4F85_c-21" value="original" style="text;html=1;strokeColor=none;fillColor=none;align=center;verticalAlign=middle;whiteSpace=wrap;rounded=0;fontColor=#0000FF;" vertex="1" parent="1">
          <mxGeometry x="340" y="281" width="60" height="30" as="geometry" />
        </mxCell>
        <mxCell id="waU2hx9NtPSAUG4F85_c-22" value="person" style="rounded=1;whiteSpace=wrap;html=1;sketch=1;curveFitting=1;jiggle=2;fillColor=#f8cecc;strokeColor=#b85450;fontColor=#FF0000;" vertex="1" parent="1">
          <mxGeometry x="40" y="341" width="120" height="60" as="geometry" />
        </mxCell>
        <mxCell id="waU2hx9NtPSAUG4F85_c-23" value="name = Joe Doe" style="text;html=1;strokeColor=none;fillColor=none;align=left;verticalAlign=middle;whiteSpace=wrap;rounded=0;fontColor=#FF0000;" vertex="1" parent="1">
          <mxGeometry x="170" y="336" width="100" height="30" as="geometry" />
        </mxCell>
        <mxCell id="waU2hx9NtPSAUG4F85_c-24" style="rounded=0;orthogonalLoop=1;jettySize=auto;html=1;exitX=1;exitY=0.5;exitDx=0;exitDy=0;entryX=0;entryY=0.75;entryDx=0;entryDy=0;sketch=1;curveFitting=1;jiggle=2;fillColor=#f8cecc;strokeColor=#b85450;" edge="1" parent="1" target="waU2hx9NtPSAUG4F85_c-18">
          <mxGeometry relative="1" as="geometry">
            <mxPoint x="210" y="371" as="sourcePoint" />
            <mxPoint x="310" y="371" as="targetPoint" />
            <Array as="points">
              <mxPoint x="270" y="371" />
              <mxPoint x="270" y="266" />
            </Array>
          </mxGeometry>
        </mxCell>
        <mxCell id="waU2hx9NtPSAUG4F85_c-25" value="copy" style="text;html=1;strokeColor=none;fillColor=none;align=center;verticalAlign=middle;whiteSpace=wrap;rounded=0;fontColor=#FF0000;" vertex="1" parent="1">
          <mxGeometry x="70" y="401" width="60" height="30" as="geometry" />
        </mxCell>
        <mxCell id="waU2hx9NtPSAUG4F85_c-26" value="city =" style="text;html=1;strokeColor=none;fillColor=none;align=left;verticalAlign=middle;whiteSpace=wrap;rounded=0;fontColor=#FF0000;" vertex="1" parent="1">
          <mxGeometry x="170" y="356" width="40" height="30" as="geometry" />
        </mxCell>
        <mxCell id="waU2hx9NtPSAUG4F85_c-28" value="" style="endArrow=none;html=1;rounded=0;" edge="1" parent="1">
          <mxGeometry width="50" height="50" relative="1" as="geometry">
            <mxPoint x="20" y="160" as="sourcePoint" />
            <mxPoint x="570" y="160" as="targetPoint" />
          </mxGeometry>
        </mxCell>
      </root>
    </mxGraphModel>
  </diagram>
</mxfile>
